<svg xmlns="http://www.w3.org/2000/svg" width="20.8" height="20" viewBox="0 0 20.8 20">
  <path id="Icon_ionic-ios-heart-empty" data-name="Icon ionic-ios-heart-empty" d="M18.575,3.938h-.05a5.689,5.689,0,0,0-4.75,2.6,5.689,5.689,0,0,0-4.75-2.6h-.05a5.653,5.653,0,0,0-5.6,5.65,12.171,12.171,0,0,0,2.39,6.635,41.884,41.884,0,0,0,8.01,7.715,41.884,41.884,0,0,0,8.01-7.715,12.171,12.171,0,0,0,2.39-6.635A5.653,5.653,0,0,0,18.575,3.938Zm2.08,11.46a38.35,38.35,0,0,1-6.88,6.78A38.407,38.407,0,0,1,6.9,15.393a10.787,10.787,0,0,1-2.12-5.805,4.242,4.242,0,0,1,4.21-4.245H9.03a4.192,4.192,0,0,1,2.055.54,4.369,4.369,0,0,1,1.52,1.425,1.4,1.4,0,0,0,2.35,0,4.413,4.413,0,0,1,1.52-1.425,4.192,4.192,0,0,1,2.055-.54h.045a4.242,4.242,0,0,1,4.21,4.245A10.923,10.923,0,0,1,20.655,15.4Z" transform="translate(-3.375 -3.938)" fill="red"/>
</svg>
